REM DIRINDEX 1\3,1\2\4,1\2\5,1\2\6
REM DIRNAME cjc137,folder01,folder02,folder03,folder04,folder05
TITLE ""
FILE "033.mp3" MP3
  TRACK 01 AUDIO
    TITLE "4:cjc137_1347"
    INDEX 01 00:00:00
  TRACK 02 AUDIO
    TITLE "0:"
    INDEX 01 00:01:30
  TRACK 03 AUDIO
    TITLE "6:cjc137_1348"
    INDEX 01 00:01:44
  TRACK 04 AUDIO
    TITLE "0:"
    INDEX 01 00:02:69
  TRACK 05 AUDIO
    TITLE "5:cjc137_1349"
    INDEX 01 00:03:02
  TRACK 06 AUDIO
    TITLE "0:"
    INDEX 01 00:04:29
  TRACK 07 AUDIO
    TITLE "4:cjc137_1350"
    INDEX 01 00:05:40
  TRACK 08 AUDIO
    TITLE "0:"
    INDEX 01 00:06:67
  TRACK 09 AUDIO
    TITLE "6:cjc137_1351"
    INDEX 01 00:07:02
  TRACK 10 AUDIO
    TITLE "0:"
    INDEX 01 00:08:38
  TRACK 11 AUDIO
    TITLE "5:cjc137_1352"
    INDEX 01 00:08:44
  TRACK 12 AUDIO
    TITLE "0:"
    INDEX 01 00:09:73
  TRACK 13 AUDIO
    TITLE "4:cjc137_1353"
    INDEX 01 00:11:03
  TRACK 14 AUDIO
    TITLE "0:"
    INDEX 01 00:12:12
  TRACK 15 AUDIO
    TITLE "6:cjc137_1354"
    INDEX 01 00:12:18
  TRACK 16 AUDIO
    TITLE "0:"
    INDEX 01 00:13:41
  TRACK 17 AUDIO
    TITLE "5:cjc137_1355"
    INDEX 01 00:13:45
  TRACK 18 AUDIO
    TITLE "0:"
    INDEX 01 00:14:54
  TRACK 19 AUDIO
    TITLE "4:cjc137_1356"
    INDEX 01 00:15:60
  TRACK 20 AUDIO
    TITLE "0:"
    INDEX 01 00:16:59
  TRACK 21 AUDIO
    TITLE "6:cjc137_1357"
    INDEX 01 00:16:65
  TRACK 22 AUDIO
    TITLE "0:"
    INDEX 01 00:17:69
  TRACK 23 AUDIO
    TITLE "5:cjc137_1358"
    INDEX 01 00:17:72
  TRACK 24 AUDIO
    TITLE "0:"
    INDEX 01 00:18:74
  TRACK 25 AUDIO
    TITLE "4:cjc137_1359"
    INDEX 01 00:20:06
  TRACK 26 AUDIO
    TITLE "0:"
    INDEX 01 00:21:13
  TRACK 27 AUDIO
    TITLE "6:cjc137_1360"
    INDEX 01 00:21:21
  TRACK 28 AUDIO
    TITLE "0:"
    INDEX 01 00:22:32
  TRACK 29 AUDIO
    TITLE "5:cjc137_1361"
    INDEX 01 00:22:40
  TRACK 30 AUDIO
    TITLE "0:"
    INDEX 01 00:23:46
  TRACK 31 AUDIO
    TITLE "4:cjc137_1362"
    INDEX 01 00:24:55
  TRACK 32 AUDIO
    TITLE "0:"
    INDEX 01 00:25:60
  TRACK 33 AUDIO
    TITLE "6:cjc137_1363"
    INDEX 01 00:25:66
  TRACK 34 AUDIO
    TITLE "0:"
    INDEX 01 00:26:66
  TRACK 35 AUDIO
    TITLE "5:cjc137_1364"
    INDEX 01 00:26:71
  TRACK 36 AUDIO
    TITLE "0:"
    INDEX 01 00:28:00
  TRACK 37 AUDIO
    TITLE "4:cjc137_1365"
    INDEX 01 00:29:07
  TRACK 38 AUDIO
    TITLE "0:"
    INDEX 01 00:30:30
  TRACK 39 AUDIO
    TITLE "6:cjc137_1366"
    INDEX 01 00:30:36
  TRACK 40 AUDIO
    TITLE "0:"
    INDEX 01 00:31:51
  TRACK 41 AUDIO
    TITLE "5:cjc137_1367"
    INDEX 01 00:31:57
  TRACK 42 AUDIO
    TITLE "0:"
    INDEX 01 00:33:05
  TRACK 43 AUDIO
    TITLE "4:cjc137_1368"
    INDEX 01 00:34:12
  TRACK 44 AUDIO
    TITLE "0:"
    INDEX 01 00:35:15
  TRACK 45 AUDIO
    TITLE "6:cjc137_1369"
    INDEX 01 00:35:27
  TRACK 46 AUDIO
    TITLE "0:"
    INDEX 01 00:37:48
  TRACK 47 AUDIO
    TITLE "5:cjc137_1370"
    INDEX 01 00:37:56
  TRACK 48 AUDIO
    TITLE "0:"
    INDEX 01 00:38:59
  TRACK 49 AUDIO
    TITLE "4:cjc137_1371"
    INDEX 01 00:39:72
  TRACK 50 AUDIO
    TITLE "0:"
    INDEX 01 00:41:10
  TRACK 51 AUDIO
    TITLE "6:cjc137_1372"
    INDEX 01 00:41:16
  TRACK 52 AUDIO
    TITLE "0:"
    INDEX 01 00:42:19
  TRACK 53 AUDIO
    TITLE "5:cjc137_1373"
    INDEX 01 00:42:25
  TRACK 54 AUDIO
    TITLE "0:"
    INDEX 01 00:43:39
  TRACK 55 AUDIO
    TITLE "4:cjc137_1374"
    INDEX 01 00:44:46
  TRACK 56 AUDIO
    TITLE "0:"
    INDEX 01 00:45:47
  TRACK 57 AUDIO
    TITLE "6:cjc137_1375"
    INDEX 01 00:45:55
  TRACK 58 AUDIO
    TITLE "0:"
    INDEX 01 00:46:54
  TRACK 59 AUDIO
    TITLE "5:cjc137_1376"
    INDEX 01 00:46:62
  TRACK 60 AUDIO
    TITLE "0:"
    INDEX 01 00:47:62
  TRACK 61 AUDIO
    TITLE "4:cjc137_1377"
    INDEX 01 00:48:69
  TRACK 62 AUDIO
    TITLE "0:"
    INDEX 01 00:49:70
  TRACK 63 AUDIO
    TITLE "6:cjc137_1378"
    INDEX 01 00:50:05
  TRACK 64 AUDIO
    TITLE "0:"
    INDEX 01 00:51:16
  TRACK 65 AUDIO
    TITLE "5:cjc137_1379"
    INDEX 01 00:51:22
  TRACK 66 AUDIO
    TITLE "0:"
    INDEX 01 00:52:22
  TRACK 67 AUDIO
    TITLE "4:cjc137_1380"
    INDEX 01 00:53:37
  TRACK 68 AUDIO
    TITLE "0:"
    INDEX 01 00:54:44
  TRACK 69 AUDIO
    TITLE "6:cjc137_1381"
    INDEX 01 00:54:52
  TRACK 70 AUDIO
    TITLE "0:"
    INDEX 01 00:55:63
  TRACK 71 AUDIO
    TITLE "5:cjc137_1382"
    INDEX 01 00:55:71
  TRACK 72 AUDIO
    TITLE "0:"
    INDEX 01 00:57:05
  TRACK 73 AUDIO
    TITLE "4:cjc137_1383"
    INDEX 01 00:58:15
  TRACK 74 AUDIO
    TITLE "0:"
    INDEX 01 00:59:30
  TRACK 75 AUDIO
    TITLE "6:cjc137_1384"
    INDEX 01 00:59:39
  TRACK 76 AUDIO
    TITLE "0:"
    INDEX 01 01:00:68
  TRACK 77 AUDIO
    TITLE "5:cjc137_1385"
    INDEX 01 01:01:01
  TRACK 78 AUDIO
    TITLE "0:"
    INDEX 01 01:02:18
  TRACK 79 AUDIO
    TITLE "4:cjc137_1386"
    INDEX 01 01:03:26
  TRACK 80 AUDIO
    TITLE "0:"
    INDEX 01 01:04:37
  TRACK 81 AUDIO
    TITLE "6:cjc137_1387"
    INDEX 01 01:04:48
  TRACK 82 AUDIO
    TITLE "0:"
    INDEX 01 01:05:38
  TRACK 83 AUDIO
    TITLE "5:cjc137_1388"
    INDEX 01 01:05:46
  TRACK 84 AUDIO
    TITLE "0:"
    INDEX 01 01:06:61
